<?xml version="1.0" encoding="UTF-8"?>
<svg id="Layer_1" data-name="Layer 1" xmlns="http://www.w3.org/2000/svg" width="300" height="175" viewBox="0 0 300 175">
  <g id="Layer_1-2" data-name="Layer 1">
    <rect width="300" height="175" fill="#080225"/>
    <g>
      <path d="M260.57,63.09c-3.74-6.55-10.76-10.29-18.71-10.29-5.77,0-14.04,1.87-19.49,9.67-3.74-6.39-10.14-9.67-17-9.67-4.99,0-11.07,1.56-16.22,7.8v-6.08h-15.28v65.66h15.28v-33.84c0-5.61.31-11.23,2.96-14.97,2.03-2.81,5.3-4.84,9.04-4.84,5.46,0,7.8,3.28,8.73,5.77.62,1.4,1.4,4.37,1.4,11.7v36.18h15.28v-33.84c0-5.61.31-11.23,2.96-14.97,2.03-2.81,5.3-4.84,9.04-4.84,5.46,0,7.8,3.28,8.73,5.77.62,1.4,1.4,4.37,1.4,11.7v36.18h15.28v-40.55c0-9.51-2.18-14.35-3.43-16.53Z" fill="#fff"/>
      <path d="M142.62,54.98c-2.18,1.25-4.68,3.43-6.39,5.46v-5.93h-15.28v65.66h15.28v-34c0-4.37,0-10.6,4.21-15.13,2.96-3.12,6.24-3.59,9.51-3.59,1.56,0,4.37.16,7.8,2.34l6.24-13.88c-4.21-2.5-8.27-3.12-12.01-3.12-3.43,0-6.39.47-9.36,2.18Z" fill="#fff"/>
      <path d="M87.46,62.16c-6.24-8.11-14.66-9.36-19.49-9.36-17.31,0-31.97,13.1-31.97,34.47,0,18.09,11.54,34.93,31.82,34.93,4.68,0,12.94-1.09,19.65-8.89v6.86h15.28V54.52h-15.28v7.64ZM69.84,108.48c-11.07,0-18.25-9.51-18.25-20.9s7.17-21.05,18.25-21.05c9.67,0,18.56,6.86,18.56,21.21s-8.89,20.74-18.56,20.74Z" fill="#fff"/>
    </g>
  </g>
</svg>